<svg xmlns="http://www.w3.org/2000/svg" viewBox="0 0 1024 1024" width="1024" height="1024"><defs><clipPath id="sq"><rect width="1024" height="1024" rx="230"/></clipPath></defs><g clip-path="url(#sq)"><defs><linearGradient id="L0bg" gradientUnits="userSpaceOnUse" x1="0" y1="0" x2="0" y2="1024"><stop offset="0" stop-color="#3A3A3C"/><stop offset="1" stop-color="#1C1C1E"/></linearGradient><radialGradient id="L0hi" cx=".5" cy=".15" r=".75"><stop offset="0" stop-color="#FFFFFF" stop-opacity=".22"/><stop offset="1" stop-color="#FFFFFF" stop-opacity="0"/></radialGradient></defs><rect width="1024" height="1024" fill="url(#L0bg)"/><rect width="1024" height="1024" fill="url(#L0hi)"/><circle cx="512" cy="532" r="344" fill="#000" fill-opacity=".18"/><defs><linearGradient id="L1d" gradientUnits="userSpaceOnUse" x1="0" y1="168" x2="0" y2="856"><stop offset="0" stop-color="#FFFFFF"/><stop offset="1" stop-color="#D6D6DA"/></linearGradient></defs><circle cx="512" cy="512" r="344" fill="url(#L1d)"/><circle cx="512" cy="512" r="338" fill="none" stroke="#000000" stroke-opacity=".12" stroke-width="12"/><circle cx="512" cy="512" r="262" fill="none" stroke="#000000" stroke-opacity=".16" stroke-width="10"/><circle cx="512.0" cy="212.0" r="11" fill="#000000" fill-opacity=".26"/><circle cx="662.0" cy="252.2" r="11" fill="#000000" fill-opacity=".26"/><circle cx="771.8" cy="362.0" r="11" fill="#000000" fill-opacity=".26"/><circle cx="812.0" cy="512.0" r="11" fill="#000000" fill-opacity=".26"/><circle cx="771.8" cy="662.0" r="11" fill="#000000" fill-opacity=".26"/><circle cx="662.0" cy="771.8" r="11" fill="#000000" fill-opacity=".26"/><circle cx="512.0" cy="812.0" r="11" fill="#000000" fill-opacity=".26"/><circle cx="362.0" cy="771.8" r="11" fill="#000000" fill-opacity=".26"/><circle cx="252.2" cy="662.0" r="11" fill="#000000" fill-opacity=".26"/><circle cx="212.0" cy="512.0" r="11" fill="#000000" fill-opacity=".26"/><circle cx="252.2" cy="362.0" r="11" fill="#000000" fill-opacity=".26"/><circle cx="362.0" cy="252.2" r="11" fill="#000000" fill-opacity=".26"/><defs><linearGradient id="L2w" gradientUnits="userSpaceOnUse" x1="0" y1="300" x2="0" y2="724"><stop offset="0" stop-color="#8E8E93"/><stop offset="1" stop-color="#48484A"/></linearGradient></defs><circle cx="512" cy="512" r="150" fill="none" stroke="url(#L2w)" stroke-width="38"/><g stroke="url(#L2w)" stroke-width="44" stroke-linecap="round"><line x1="650.6" y1="650.6" x2="373.4" y2="373.4"/><line x1="373.4" y1="650.6" x2="650.6" y2="373.4"/></g><circle cx="650.6" cy="650.6" r="36" fill="url(#L2w)"/><circle cx="373.4" cy="650.6" r="36" fill="url(#L2w)"/><circle cx="373.4" cy="373.4" r="36" fill="url(#L2w)"/><circle cx="650.6" cy="373.4" r="36" fill="url(#L2w)"/><defs><linearGradient id="L3h" gradientUnits="userSpaceOnUse" x1="0" y1="420" x2="0" y2="604"><stop offset="0" stop-color="#8E8E93"/><stop offset="1" stop-color="#48484A"/></linearGradient></defs><circle cx="512" cy="512" r="92" fill="url(#L3h)"/><circle cx="512" cy="512" r="36" fill="#FFFFFF"/></g></svg>